<?xml version="1.0" encoding="UTF-8"?>
<svg version="1.1" xmlns="http://www.w3.org/2000/svg" width="512" height="512">
<path d="M0,0 L10,1 L18,5 L24,12 L26,17 L26,30 L34,30 L43,34 L48,39 L51,45 L52,53 L46,77 L56,78 L64,82 L69,88 L71,92 L71,105 L56,155 L53,170 L53,185 L56,202 L60,223 L62,244 L62,263 L60,282 L55,303 L49,318 L48,363 L46,366 L43,367 L-60,367 L-64,365 L-65,363 L-66,320 L-77,308 L-86,299 L-93,291 L-101,283 L-110,270 L-117,255 L-121,239 L-121,134 L-116,124 L-108,118 L-103,116 L-91,116 L-88,105 L-67,45 L-60,27 L-56,22 L-50,18 L-42,16 L-32,17 L-24,21 L-23,22 L-16,8 L-8,2 Z M1,13 L-5,16 L-8,20 L-28,82 L-48,146 L-51,156 L-57,156 L-61,151 L-60,143 L-37,70 L-29,45 L-29,36 L-33,31 L-38,29 L-44,30 L-49,35 L-55,51 L-72,100 L-79,120 L-78,124 L-74,130 L-72,138 L-71,192 L-69,192 L-67,196 L-62,200 L-57,205 L-52,211 L-50,211 L-50,213 L-46,217 L-44,217 L-44,219 L-39,224 L-34,228 L-29,234 L-26,237 L-25,242 L-26,246 L-34,246 L-83,197 L-84,140 L-87,133 L-90,130 L-93,129 L-100,129 L-106,133 L-108,136 L-109,141 L-109,225 L-107,242 L-102,257 L-94,270 L-85,280 L-70,296 L-62,304 L-55,312 L-53,315 L-52,354 L35,354 L36,314 L42,300 L47,281 L49,264 L49,243 L46,218 L41,195 L40,186 L40,169 L43,153 L58,102 L58,95 L53,91 L47,90 L42,93 L39,98 L18,173 L16,177 L8,177 L6,174 L7,167 L34,70 L39,51 L36,45 L32,43 L26,43 L22,45 L19,50 L2,108 L-12,155 L-14,157 L-21,157 L-23,154 L-22,146 L4,58 L13,28 L13,20 L9,15 L4,13 Z " fill="#000000" transform="translate(179,75)"/>
<path d="M0,0 L10,1 L18,5 L23,11 L28,22 L34,18 L42,16 L52,17 L61,22 L67,31 L84,80 L96,114 L96,116 L108,116 L118,121 L124,129 L126,134 L126,239 L121,258 L112,275 L103,286 L92,297 L85,305 L74,316 L71,320 L70,363 L68,366 L65,367 L-38,367 L-42,365 L-43,363 L-44,318 L-50,303 L-55,282 L-57,263 L-57,244 L-55,223 L-50,198 L-48,185 L-48,170 L-51,155 L-66,105 L-66,92 L-61,84 L-54,79 L-47,77 L-41,77 L-47,53 L-46,45 L-43,39 L-38,34 L-29,30 L-21,30 L-21,17 L-17,9 L-10,3 Z M1,13 L-5,16 L-8,20 L-8,28 L15,105 L28,149 L27,156 L26,157 L19,157 L16,152 L-5,81 L-14,50 L-19,44 L-21,43 L-27,43 L-32,46 L-34,52 L-14,124 L-1,171 L-2,176 L-3,177 L-11,177 L-15,166 L-33,101 L-36,94 L-39,91 L-45,90 L-51,93 L-53,95 L-53,102 L-37,156 L-35,169 L-35,186 L-38,204 L-42,224 L-44,243 L-44,264 L-42,281 L-37,300 L-31,314 L-30,354 L57,354 L58,315 L65,307 L74,297 L84,287 L91,279 L100,269 L107,257 L112,242 L114,225 L114,141 L112,134 L107,130 L105,129 L98,129 L93,132 L90,136 L89,139 L88,197 L39,246 L31,246 L30,239 L37,231 L76,192 L77,138 L80,128 L84,123 L82,114 L63,59 L55,37 L51,31 L46,29 L40,30 L35,34 L34,36 L34,45 L57,117 L66,146 L66,151 L62,156 L58,155 L55,154 L52,142 L34,86 L19,39 L12,18 L7,14 Z " fill="#000000" transform="translate(328,75)"/>
</svg>
